<svg xmlns="http://www.w3.org/2000/svg" viewBox="0 0 735.29 155.84"><defs><style>.cls-1{fill:none;}.cls-2{fill:#1994e0;}.cls-3{fill:#0d52bf;}.cls-4{fill:#00e4d1;}.cls-5{fill:#02a5a0;}.cls-6{fill:#070044;}</style></defs><g id="레이어_2" data-name="레이어 2"><g id="레이어_1-2" data-name="레이어 1"><path class="cls-1" d="M147.42,99.47a39,39,0,0,0,55.09,0L207,95a94.22,94.22,0,0,1-45.19-25.17l-2.88-2.89-22.05,22Z"/><path class="cls-2" d="M158.94,66.9l2.88,2.89A94.22,94.22,0,0,0,207,95l57-57a49.82,49.82,0,0,1-70.37,0l-2.88-2.89Z"/><path class="cls-2" d="M207,95l-4.5,4.51a39,39,0,0,1-55.09,0L136.89,88.94l-31.82,31.82,10.53,10.53a84.06,84.06,0,0,0,118.73,0l61.5-61.5A94.78,94.78,0,0,1,207,95Z"/><path class="cls-3" d="M295.83,69.79,264,38,207,95A94.78,94.78,0,0,0,295.83,69.79Z"/><path class="cls-4" d="M88.82,60.87l4.5-4.5a39,39,0,0,1,55.09,0L158.94,66.9l31.82-31.82L180.23,24.55a84.06,84.06,0,0,0-118.73,0L0,86.05A94.78,94.78,0,0,1,88.82,60.87Z"/><path class="cls-4" d="M134,86.05A94.25,94.25,0,0,0,88.82,60.87l-57,57a49.81,49.81,0,0,1,70.36,0l2.89,2.89,31.82-31.82Z"/><path class="cls-5" d="M0,86.05l31.82,31.82,57-57A94.78,94.78,0,0,0,0,86.05Z"/><path class="cls-6" d="M427.33,46.12H380l-3.66,20.5H413l-4.33,24.83H372l-7.66,43H331.51L352,17.8h80.32Z"/><path class="cls-6" d="M431,95.62,446.16,9.46h30.66L462.16,92.62c-1.84,11.33,1.5,17.66,9.5,17.66,1.66,0,3.33-.17,5.5-.33l-4.5,25.33a58.37,58.37,0,0,1-11.34,1.16C430.33,136.44,427.83,113.28,431,95.62Z"/><path class="cls-6" d="M486.49,92c4.5-26.5,28.83-44.49,55.16-44.49,26.49,0,44.32,18,39.66,44.49S552.48,136.44,526,136.44C499.65,136.44,481.66,118.44,486.49,92ZM552,92c2-11-4.5-18.5-14.83-18.5A22.17,22.17,0,0,0,515.65,92c-1.83,11,4.67,18.5,14.83,18.5A21.91,21.91,0,0,0,552,92Z"/><path class="cls-6" d="M701.63,49.46h33.66l-.17,1.66-50.33,83.32H665.3L654.13,95l-24.66,39.49H610L589,51.29l.33-1.83H623l7,44.32L654.63,54h12.83l11.67,39.66Z"/></g></g></svg>